<svg width="32" height="32" viewBox="0 0 32 32" fill="none" xmlns="http://www.w3.org/2000/svg">
<g id="Frame" clip-path="url(#clip0_427_4540)">
<g id="Group">
<path id="Vector" d="M21.5044 26.6531C21.5044 24.0193 23.6349 21.8765 26.2536 21.8765C26.9864 21.8761 27.7092 22.0471 28.3642 22.3759C29.2894 20.5143 29.8137 18.4178 29.8218 16.1984C29.8501 8.45955 23.6003 2.16305 15.8624 2.13486C8.12469 2.10661 1.82913 8.35742 1.80088 16.0963C1.77263 23.835 8.0225 30.1316 15.7603 30.1599C17.9917 30.168 20.1026 29.6531 21.9784 28.7318C21.6749 28.103 21.5044 27.3977 21.5044 26.6531Z" fill="url(#paint0_linear_427_4540)"/>
<path id="Vector_2" d="M3.38694 16.0963C3.41419 8.63911 9.261 2.56461 16.6097 2.15749C16.3608 2.1434 16.1117 2.13586 15.8624 2.13486C8.12469 2.10661 1.82913 8.35742 1.80088 16.0963C1.77263 23.835 8.0225 30.1316 15.7603 30.1599C16.042 30.1609 16.3215 30.1526 16.5991 30.1372C9.21019 29.7217 3.35963 23.5843 3.38694 16.0963Z" fill="url(#paint1_linear_427_4540)"/>
<path id="Vector_3" d="M25.1766 22.0018C26.2366 20.3133 26.8539 18.3205 26.8618 16.1875C26.8726 13.2355 25.7333 10.4558 23.6537 8.36078C21.5742 6.26578 18.8033 5.10596 15.8515 5.09528L15.8102 5.09521C9.73963 5.09521 4.78294 10.0351 4.76082 16.1071C4.75001 19.0592 5.88938 21.8387 7.96888 23.9339C10.0484 26.029 12.8193 27.1887 15.7709 27.1994L15.8124 27.1995C17.9476 27.1995 19.9446 26.5877 21.6379 25.5311C22.0578 23.7842 23.4343 22.4099 25.1766 22.0018Z" fill="white"/>
<path id="Vector_4" d="M9.55494 23.9338C7.47538 21.8387 6.33601 19.0592 6.34682 16.107C6.36801 10.3009 10.9012 5.53053 16.6057 5.12384C16.3547 5.10593 16.1031 5.09641 15.8515 5.09528L15.8102 5.09521C9.73963 5.09521 4.78294 10.0351 4.76082 16.1071C4.75001 19.0592 5.88938 21.8387 7.96888 23.9339C10.0484 26.029 12.8193 27.1887 15.7709 27.1994L15.8124 27.1995C16.0783 27.1995 16.3418 27.1895 16.6031 27.1709C13.9359 26.9826 11.4563 25.8496 9.55494 23.9338Z" fill="#EFE2DD"/>
<path id="Vector_5" d="M15.7781 24.239C13.6207 24.2312 11.5921 23.3821 10.0696 21.8482C8.54701 20.3143 7.71295 18.2792 7.72076 16.1179C7.73695 11.6723 11.3659 8.05566 15.8102 8.05566L15.8446 8.05573C18.0019 8.06354 20.0306 8.91266 21.553 10.4465C23.0756 11.9804 23.9098 14.0155 23.9018 16.1768C23.8856 20.6211 20.2588 24.237 15.8164 24.2392L15.7781 24.239Z" fill="url(#paint2_linear_427_4540)"/>
<path id="Vector_6" d="M11.9729 21.8482C10.4503 20.3143 9.6162 18.2792 9.62413 16.1179C9.63913 11.9925 12.7653 8.58166 16.7669 8.11154C16.4608 8.07563 16.1528 8.057 15.8446 8.05573L15.8102 8.05566C11.3659 8.05566 7.73695 11.6724 7.72076 16.1179C7.71288 18.2793 8.54695 20.3143 10.0696 21.8482C11.5921 23.3821 13.6208 24.2312 15.7781 24.239L15.8164 24.2392C16.1315 24.2389 16.4462 24.2202 16.7591 24.1833C14.9508 23.972 13.2763 23.1613 11.9729 21.8482Z" fill="url(#paint3_linear_427_4540)"/>
<path id="Vector_7" d="M15.7856 21.2787C14.4208 21.2737 13.1358 20.7354 12.1701 19.7626C11.2047 18.7899 10.6756 17.4994 10.6807 16.1289C10.691 13.3097 12.992 11.0161 15.8101 11.0161L15.836 11.0162C17.2017 11.0211 18.4869 11.5595 19.4523 12.5322C20.4178 13.505 20.9467 14.7954 20.9418 16.1661C20.9316 18.9825 18.6335 21.2752 15.8188 21.2789L15.7856 21.2787Z" fill="white"/>
<path id="Vector_8" d="M13.7561 19.7625C12.7907 18.7899 12.2617 17.4994 12.2668 16.1288C12.2761 13.5777 14.1613 11.4572 16.608 11.077C16.3525 11.0374 16.0945 11.0171 15.836 11.0162L15.8101 11.0161C12.992 11.0161 10.691 13.3097 10.6807 16.1289C10.6756 17.4994 11.2046 18.7899 12.1701 19.7626C13.1358 20.7354 14.4208 21.2737 15.7856 21.2787L15.8188 21.2789C16.0845 21.2785 16.3456 21.2576 16.6007 21.2179C15.528 21.052 14.5375 20.5496 13.7561 19.7625Z" fill="#EFE2DD"/>
<path id="Vector_9" d="M15.794 18.3179C15.2127 18.3158 14.6851 18.094 14.2708 17.6765C13.8564 17.2591 13.6385 16.7274 13.6406 16.1393C13.645 14.9479 14.6161 13.9783 15.806 13.9761L15.8251 13.9761C16.4094 13.9783 16.9373 14.2001 17.3516 14.6175C17.766 15.035 17.984 15.5665 17.9818 16.1548C17.9775 17.3444 17.008 18.3137 15.8199 18.318L15.794 18.3179Z" fill="url(#paint4_linear_427_4540)"/>
<path id="Vector_10" d="M15.5396 17.6765C15.1253 17.2591 14.9075 16.7274 14.9095 16.1393C14.9131 15.1644 15.564 14.3384 16.4524 14.069C16.2531 14.0084 16.0431 13.9769 15.8251 13.9761L15.806 13.9761C14.616 13.9783 13.645 14.9479 13.6406 16.1393C13.6385 16.7274 13.8564 17.2591 14.2708 17.6765C14.6851 18.094 15.2127 18.3159 15.794 18.3179L15.82 18.318C16.0295 18.3172 16.2377 18.2859 16.4382 18.2251C16.1039 18.1231 15.7995 17.9383 15.5396 17.6765Z" fill="url(#paint5_linear_427_4540)"/>
<g id="Group_2">
<path id="Vector_11" d="M15.8112 6.30368C15.6869 6.30368 15.5677 6.2543 15.4798 6.16639C15.3919 6.07848 15.3425 5.95925 15.3425 5.83493V0.802246C15.3425 0.677926 15.3919 0.558697 15.4798 0.47079C15.5677 0.382882 15.6869 0.333496 15.8112 0.333496C15.9356 0.333496 16.0548 0.382882 16.1427 0.47079C16.2306 0.558697 16.28 0.677926 16.28 0.802246V5.83493C16.28 5.95925 16.2306 6.07848 16.1427 6.16639C16.0548 6.2543 15.9356 6.30368 15.8112 6.30368ZM15.8112 31.9605C15.6869 31.9605 15.5677 31.9111 15.4798 31.8232C15.3919 31.7353 15.3425 31.6161 15.3425 31.4917V26.4591C15.3425 26.3347 15.3919 26.2155 15.4798 26.1276C15.5677 26.0397 15.6869 25.9903 15.8112 25.9903C15.9356 25.9903 16.0548 26.0397 16.1427 26.1276C16.2306 26.2155 16.28 26.3347 16.28 26.4591V31.4917C16.28 31.6161 16.2306 31.7353 16.1427 31.8232C16.0548 31.9111 15.9356 31.9605 15.8112 31.9605ZM5.50075 16.6158H0.46875C0.34443 16.6158 0.225201 16.5664 0.137294 16.4785C0.049386 16.3906 0 16.2714 0 16.1471C0 16.0227 0.049386 15.9035 0.137294 15.8156C0.225201 15.7277 0.34443 15.6783 0.46875 15.6783H5.50075C5.62507 15.6783 5.7443 15.7277 5.83221 15.8156C5.92011 15.9035 5.9695 16.0227 5.9695 16.1471C5.9695 16.2714 5.92011 16.3906 5.83221 16.4785C5.7443 16.5664 5.62507 16.6158 5.50075 16.6158ZM31.1539 16.6158H26.1218C25.8629 16.6158 25.6531 16.4059 25.6531 16.1471C25.6531 15.8882 25.8629 15.6783 26.1218 15.6783H31.1539C31.2782 15.6783 31.3974 15.7277 31.4853 15.8156C31.5732 15.9035 31.6226 16.0227 31.6226 16.1471C31.6226 16.2714 31.5732 16.3906 31.4853 16.4785C31.3974 16.5664 31.2782 16.6158 31.1539 16.6158Z" fill="#5B5555"/>
</g>
<path id="Vector_12" d="M24.5248 6.90396L28.925 2.52559L28.2533 0.167403C28.2135 0.02759 28.0964 -0.00278498 27.9932 0.100028L24.0006 4.07272C23.8972 4.17553 23.8435 4.37446 23.8817 4.51478L24.5248 6.90396ZM31.871 3.76715L29.5011 3.09865L25.1009 7.47709L27.502 8.11722C27.643 8.15484 27.8428 8.10153 27.9462 7.99872L31.9387 4.02603C32.042 3.92315 32.0115 3.80672 31.871 3.76715Z" fill="#091219"/>
<path id="Vector_13" d="M24.5248 6.90396L25.5353 5.89853L25.2464 4.82522C25.2059 4.67603 25.263 4.46459 25.3728 4.35528L28.5467 1.19728L28.2533 0.167403C28.2135 0.02759 28.0964 -0.00278498 27.9932 0.100028L24.0006 4.07272C23.8972 4.17553 23.8435 4.37446 23.8817 4.51478L24.5248 6.90396Z" fill="#091219"/>
<path id="Vector_14" d="M26.4417 4.9964L27.2057 4.23628L26.5633 1.85015C26.5421 1.7715 26.5007 1.69976 26.4432 1.64209L25.728 2.35378L26.4248 4.94165C26.4297 4.96009 26.4354 4.97834 26.4417 4.9964ZM27.7859 4.80515L27.0185 5.56878C27.0352 5.57446 27.052 5.57978 27.069 5.58428L29.6745 6.27884L30.3907 5.56621C30.3324 5.50698 30.2592 5.46444 30.1789 5.44303L27.7859 4.80515Z" fill="#091219"/>
<path id="Vector_15" d="M15.8112 16.6161C15.7495 16.6162 15.6883 16.6041 15.6313 16.5803C15.5743 16.5566 15.5225 16.5218 15.479 16.478C15.3913 16.3899 15.3422 16.2705 15.3425 16.1462C15.3428 16.0219 15.3925 15.9028 15.4806 15.8151L29.9181 1.4495C29.9617 1.40607 30.0134 1.37166 30.0704 1.34824C30.1273 1.32482 30.1883 1.31284 30.2498 1.31299C30.3114 1.31314 30.3723 1.32542 30.4291 1.34912C30.4859 1.37282 30.5375 1.40749 30.5809 1.45113C30.6686 1.53925 30.7177 1.65859 30.7174 1.7829C30.7171 1.90721 30.6674 2.02631 30.5793 2.114L16.1419 16.4796C16.0984 16.523 16.0469 16.5573 15.9901 16.5808C15.9334 16.6042 15.8726 16.6162 15.8112 16.6161Z" fill="#CDBFBA"/>
<path id="Vector_16" d="M31.0652 26.653C31.0652 29.3255 28.9109 31.492 26.2536 31.492C23.5962 31.492 21.4419 29.3255 21.4419 26.653C21.4419 23.9805 23.5963 21.814 26.2536 21.814C28.9109 21.8139 31.0652 23.9805 31.0652 26.653Z" fill="#97D729"/>
<path id="Vector_17" d="M23.487 26.6531C23.487 24.3336 25.1101 22.3962 27.2761 21.9246C26.9402 21.8512 26.5974 21.8141 26.2536 21.814C23.5962 21.814 21.4419 23.9805 21.4419 26.653C21.4419 29.3255 23.5963 31.492 26.2536 31.492C26.6046 31.492 26.9465 31.4532 27.2761 31.3815C25.1101 30.9099 23.487 28.9725 23.487 26.6531Z" fill="#8BC727"/>
<path id="Vector_18" d="M25.6765 28.4046C25.6147 28.4046 25.5535 28.3924 25.4965 28.3687C25.4394 28.345 25.3876 28.3102 25.3441 28.2664L23.9469 26.8612C23.9028 26.8177 23.8677 26.7659 23.8437 26.7088C23.8197 26.6516 23.8073 26.5903 23.8071 26.5284C23.807 26.4664 23.8191 26.405 23.8429 26.3478C23.8666 26.2905 23.9014 26.2386 23.9454 26.1949C23.9893 26.1512 24.0415 26.1166 24.0988 26.0932C24.1562 26.0698 24.2177 26.058 24.2796 26.0585C24.3416 26.059 24.4028 26.0718 24.4598 26.0961C24.5168 26.1204 24.5684 26.1558 24.6116 26.2002L25.6765 27.2711L27.8953 25.0394C27.983 24.9518 28.102 24.9025 28.226 24.9023C28.3501 24.9022 28.4691 24.9512 28.5571 25.0387C28.645 25.1262 28.6947 25.245 28.6953 25.369C28.6958 25.493 28.6472 25.6122 28.56 25.7005L26.0088 28.2664C25.9653 28.3102 25.9135 28.345 25.8564 28.3687C25.7994 28.3924 25.7382 28.4046 25.6765 28.4046Z" fill="#017B4E"/>
</g>
</g>
<defs>
<linearGradient id="paint0_linear_427_4540" x1="3.55943" y1="30.16" x2="15.8113" y2="30.16" gradientUnits="userSpaceOnUse">
<stop stop-color="#FF7701"/>
<stop offset="1" stop-color="#091219" stop-opacity="0.54"/>
</linearGradient>
<linearGradient id="paint1_linear_427_4540" x1="2.73021" y1="30.1599" x2="9.20524" y2="30.1599" gradientUnits="userSpaceOnUse">
<stop stop-color="#FF7701"/>
<stop offset="1" stop-color="#091219" stop-opacity="0.54"/>
</linearGradient>
<linearGradient id="paint2_linear_427_4540" x1="8.73626" y1="24.2392" x2="15.8113" y2="24.2392" gradientUnits="userSpaceOnUse">
<stop stop-color="#FF7701"/>
<stop offset="1" stop-color="#091219" stop-opacity="0.54"/>
</linearGradient>
<linearGradient id="paint3_linear_427_4540" x1="8.28846" y1="24.2392" x2="12.2438" y2="24.2392" gradientUnits="userSpaceOnUse">
<stop stop-color="#FF7701"/>
<stop offset="1" stop-color="#091219" stop-opacity="0.54"/>
</linearGradient>
<linearGradient id="paint4_linear_427_4540" x1="13.9131" y1="18.318" x2="15.8112" y2="18.318" gradientUnits="userSpaceOnUse">
<stop stop-color="#FF7701"/>
<stop offset="1" stop-color="#091219" stop-opacity="0.54"/>
</linearGradient>
<linearGradient id="paint5_linear_427_4540" x1="13.8171" y1="18.318" x2="15.0465" y2="18.318" gradientUnits="userSpaceOnUse">
<stop stop-color="#FF7701"/>
<stop offset="1" stop-color="#091219" stop-opacity="0.54"/>
</linearGradient>
<clipPath id="clip0_427_4540">
<rect width="32" height="32" fill="white"/>
</clipPath>
</defs>
</svg>
