<svg width="25" height="24" viewBox="0 0 25 24" fill="none" xmlns="http://www.w3.org/2000/svg">
<g id="Social Icons">
<path id="Vector" d="M22.7972 17.6797C19.0806 15.88 18.4883 13.1014 18.4619 12.8953C18.43 12.6457 18.3939 12.4494 18.6692 12.1955C18.9347 11.9501 20.1126 11.2208 20.4395 10.9926C20.9797 10.6148 21.2176 10.2376 21.0422 9.77386C20.9196 9.45306 20.621 9.33223 20.3064 9.33223C20.2072 9.33253 20.1083 9.34364 20.0115 9.36535C19.4179 9.49416 18.8415 9.79165 18.5079 9.872C18.4678 9.88234 18.4267 9.8879 18.3853 9.88856C18.2075 9.88856 18.14 9.80943 18.1572 9.59537C18.1989 8.94642 18.2872 7.6798 18.1848 6.49659C18.0443 4.8687 17.5195 4.06211 16.8971 3.34875C16.596 3.00281 15.1979 1.5166 12.4999 1.5166C9.80182 1.5166 8.40558 3.00281 8.10635 3.34446C7.48212 4.05782 6.95784 4.8644 6.81864 6.4923C6.71624 7.6755 6.80822 8.94151 6.84624 9.59107C6.8585 9.79471 6.79596 9.88426 6.61813 9.88426C6.57674 9.88356 6.53558 9.878 6.49549 9.8677C6.16253 9.78735 5.58613 9.48987 4.99256 9.36106C4.89574 9.33934 4.79684 9.32824 4.69761 9.32793C4.38182 9.32793 4.08442 9.45061 3.96178 9.76956C3.78641 10.2333 4.0231 10.6105 4.56516 10.9883C4.89199 11.2165 6.06994 11.9452 6.33545 12.1912C6.61016 12.4451 6.57459 12.6414 6.54271 12.891C6.51634 13.1002 5.92338 15.8788 2.20744 17.6754C1.98976 17.7809 1.61939 18.0041 2.27244 18.3648C3.2977 18.9315 3.98018 18.8708 4.51059 19.2125C4.96067 19.5026 4.69455 20.1282 5.02199 20.354C5.42425 20.6318 6.61322 20.3343 8.14927 20.8416C9.43697 21.2661 10.2194 22.4652 12.5029 22.4652C14.7865 22.4652 15.5916 21.2605 16.8566 20.8416C18.3896 20.3343 19.581 20.6318 19.9839 20.354C20.3107 20.1282 20.0452 19.5026 20.4953 19.2125C21.0257 18.8708 21.7076 18.9315 22.7334 18.3648C23.3853 18.0084 23.0149 17.7852 22.7972 17.6797Z" fill="white"/>
<path id="Vector_2" d="M24.4142 17.4683C24.2474 17.0144 23.9298 16.7715 23.568 16.5703C23.4999 16.5305 23.4374 16.4986 23.384 16.474C23.2761 16.4182 23.1657 16.3642 23.056 16.3072C21.9283 15.7091 21.0478 14.9547 20.437 14.0604C20.2636 13.8086 20.1132 13.5418 19.9876 13.263C19.9354 13.114 19.9379 13.0293 19.9753 12.952C20.0124 12.8925 20.0615 12.8413 20.1194 12.8017C20.3132 12.6736 20.5131 12.5435 20.6486 12.4558C20.8902 12.2994 21.0815 12.1755 21.2048 12.0878C21.6677 11.7639 21.9915 11.4198 22.1938 11.0352C22.335 10.7695 22.4173 10.4765 22.4352 10.1761C22.4531 9.87576 22.4061 9.57506 22.2975 9.29447C21.9909 8.48727 21.2287 7.98614 20.3052 7.98614C20.1104 7.98595 19.9162 8.00652 19.7257 8.04748C19.6748 8.05852 19.6239 8.07017 19.5743 8.08305C19.5829 7.53101 19.5706 6.94831 19.5215 6.3748C19.3474 4.35864 18.6416 3.30179 17.9058 2.45901C17.4346 1.93089 16.8796 1.48409 16.263 1.13658C15.1464 0.498667 13.8802 0.174805 12.4999 0.174805C11.1196 0.174805 9.85948 0.498667 8.74163 1.13658C8.1236 1.4842 7.56746 1.93189 7.09582 2.46147C6.35999 3.30424 5.65421 4.36293 5.48006 6.37726C5.431 6.95076 5.41874 7.53653 5.42671 8.08551C5.37704 8.07262 5.32676 8.06097 5.27587 8.04993C5.08543 8.00897 4.89118 7.98841 4.6964 7.98859C3.77232 7.98859 3.00889 8.48972 2.70353 9.29692C2.59437 9.57763 2.54691 9.87855 2.56437 10.1792C2.58183 10.4799 2.6638 10.7733 2.8047 11.0395C3.00767 11.4241 3.33143 11.7682 3.79439 12.0921C3.91703 12.1779 4.10896 12.3018 4.35056 12.4601C4.48117 12.5447 4.67187 12.6686 4.8589 12.7925C4.92433 12.8349 4.97995 12.8907 5.022 12.9563C5.06125 13.0367 5.06248 13.1232 5.00422 13.2826C4.88032 13.5555 4.73236 13.8168 4.56211 14.0635C3.96486 14.9375 3.11007 15.6785 2.01859 16.2716C1.44035 16.5783 0.839422 16.7832 0.585561 17.4732C0.394245 17.994 0.519336 18.5865 1.0056 19.0858C1.18406 19.2721 1.39105 19.4289 1.61879 19.5501C2.09266 19.8106 2.59654 20.0123 3.11927 20.1506C3.22714 20.1784 3.32955 20.2243 3.42219 20.2862C3.5994 20.4413 3.57426 20.675 3.81034 21.0173C3.92884 21.1942 4.07942 21.3473 4.25429 21.4687C4.74975 21.811 5.30653 21.8325 5.89642 21.8552C6.42928 21.8754 7.03327 21.8987 7.72311 22.1263C8.00886 22.2207 8.30565 22.4035 8.64965 22.617C9.47562 23.1249 10.6063 23.8198 12.4987 23.8198C14.391 23.8198 15.5297 23.1212 16.3618 22.6115C16.7033 22.4017 16.9983 22.2207 17.276 22.1287C17.9659 21.9006 18.5699 21.8779 19.1027 21.8576C19.6926 21.8349 20.2494 21.8135 20.7449 21.4712C20.952 21.3267 21.1245 21.1382 21.2501 20.9192C21.42 20.6303 21.4157 20.4285 21.5751 20.2874C21.662 20.2284 21.7582 20.1845 21.8596 20.1573C22.3895 20.0186 22.9003 19.815 23.3804 19.5513C23.6223 19.4215 23.8401 19.2509 24.0242 19.0471L24.0303 19.0398C24.4866 18.5515 24.6012 17.9762 24.4142 17.4683ZM22.7322 18.3724C21.7063 18.9392 21.0245 18.8785 20.4941 19.2201C20.0434 19.5102 20.3101 20.1359 19.9827 20.3616C19.5804 20.6395 18.3914 20.342 16.8554 20.8492C15.5885 21.2682 14.7803 22.4728 12.5017 22.4728C10.2231 22.4728 9.43392 21.2706 8.14622 20.8462C6.61324 20.3389 5.42181 20.6364 5.01894 20.3585C4.69211 20.1328 4.95762 19.5072 4.50754 19.217C3.97651 18.8754 3.29464 18.9361 2.26939 18.3724C1.61634 18.0118 1.9867 17.7885 2.20439 17.683C5.92033 15.8833 6.51329 13.1048 6.53965 12.8987C6.57154 12.649 6.60711 12.4527 6.3324 12.1988C6.06688 11.9534 4.88894 11.2241 4.56211 10.996C4.02128 10.6181 3.78336 10.2409 3.95873 9.77719C4.08137 9.4564 4.38061 9.33556 4.69456 9.33556C4.79379 9.33587 4.89268 9.34697 4.9895 9.36869C5.58307 9.4975 6.15948 9.79498 6.49244 9.87533C6.53253 9.88563 6.57369 9.89119 6.61508 9.8919C6.7929 9.8919 6.85545 9.80234 6.84318 9.5987C6.80517 8.94914 6.71319 7.68313 6.81559 6.49993C6.95601 4.87203 7.48029 4.06544 8.10329 3.35209C8.40253 3.00921 9.80858 1.523 12.4974 1.523C15.1863 1.523 16.596 3.00308 16.8952 3.34473C17.5189 4.05808 18.0437 4.86467 18.1829 6.49257C18.2853 7.67577 18.197 8.94239 18.1553 9.59134C18.1412 9.80541 18.2056 9.88453 18.3835 9.88453C18.4248 9.88387 18.466 9.87831 18.5061 9.86797C18.8397 9.78762 19.4161 9.49013 20.0096 9.36133C20.1065 9.33961 20.2054 9.32851 20.3046 9.3282C20.6204 9.3282 20.9178 9.45088 21.0404 9.76983C21.2158 10.2335 20.9791 10.6108 20.4377 10.9886C20.1108 11.2168 18.9329 11.9455 18.6674 12.1914C18.392 12.4454 18.4282 12.6417 18.4601 12.8913C18.4865 13.1005 19.0788 15.8791 22.7954 17.6756C23.0149 17.7854 23.3853 18.0087 22.7322 18.3724Z" fill="black"/>
</g>
</svg>
