<svg width="32" height="32" viewBox="0 0 32 32" fill="none" xmlns="http://www.w3.org/2000/svg">
<g clip-path="url(#clip0_427_4492)">
<path d="M16.0001 4.50049V0.00048849C12.8353 -2.25107e-05 9.74133 0.938084 7.10967 2.69615C4.47801 4.45422 2.42685 6.95327 1.21564 9.8772C0.00442302 12.8011 -0.312435 16.0186 0.305143 19.1226C0.92272 22.2267 2.44699 25.0778 4.68515 27.3155L7.87015 24.1305C6.26254 22.5222 5.16783 20.4734 4.72438 18.2431C4.28094 16.0127 4.50867 13.701 5.3788 11.6001C6.24892 9.49917 7.72237 7.70337 9.6129 6.43969C11.5034 5.176 13.7262 4.50117 16.0001 4.50049Z" fill="url(#paint0_linear_427_4492)"/>
<path d="M32.0001 16C32.0006 19.1649 31.0625 22.2588 29.3044 24.8905C27.5463 27.5221 25.0473 29.5733 22.1233 30.7845C19.1994 31.9957 15.9819 32.3126 12.8779 31.695C9.77387 31.0774 6.92271 29.5532 4.68506 27.315L7.87006 24.13C9.47835 25.7376 11.5271 26.8323 13.7575 27.2758C15.9878 27.7192 18.2995 27.4915 20.4005 26.6214C22.5014 25.7512 24.2972 24.2778 25.5609 22.3872C26.8245 20.4967 27.4994 18.274 27.5001 16H32.0001Z" fill="url(#paint1_linear_427_4492)"/>
<path d="M32.0004 16.0001H27.5004C27.5018 14.4897 27.2049 12.994 26.6265 11.5988C26.0482 10.2036 25.1999 8.93643 24.1304 7.87006L27.3154 4.68506C28.8032 6.16941 29.9831 7.93318 30.7871 9.875C31.5911 11.8168 32.0034 13.8984 32.0004 16.0001Z" fill="url(#paint2_linear_427_4492)"/>
<path d="M27.315 4.68502L24.13 7.87002C23.0636 6.80049 21.7964 5.95219 20.4012 5.37386C19.006 4.79553 17.5103 4.49856 16 4.50002V1.70091e-05C18.1017 -0.00305217 20.1832 0.409268 22.1251 1.21328C24.0669 2.01729 25.8306 3.19714 27.315 4.68502Z" fill="#F6B756"/>
<path d="M24 16C23.2691 17.4994 22.1315 18.7631 20.717 19.6472C19.3025 20.5312 17.668 21 16 21C14.332 21 12.6975 20.5312 11.283 19.6472C9.86852 18.7631 8.73094 17.4994 8 16C8.73094 14.5006 9.86852 13.2369 11.283 12.3528C12.6975 11.4688 14.332 11 16 11C17.668 11 19.3025 11.4688 20.717 12.3528C22.1315 13.2369 23.2691 14.5006 24 16Z" fill="url(#paint3_linear_427_4492)"/>
<path d="M16 20C18.2091 20 20 18.2091 20 16C20 13.7909 18.2091 12 16 12C13.7909 12 12 13.7909 12 16C12 18.2091 13.7909 20 16 20Z" fill="url(#paint4_linear_427_4492)"/>
<path d="M16 18C17.1046 18 18 17.1046 18 16C18 14.8954 17.1046 14 16 14C14.8954 14 14 14.8954 14 16C14 17.1046 14.8954 18 16 18Z" fill="#42455E"/>
<path d="M17.5 15.5C18.0523 15.5 18.5 15.0523 18.5 14.5C18.5 13.9477 18.0523 13.5 17.5 13.5C16.9477 13.5 16.5 13.9477 16.5 14.5C16.5 15.0523 16.9477 15.5 17.5 15.5Z" fill="white"/>
</g>
<defs>
<linearGradient id="paint0_linear_427_4492" x1="1.00191" y1="27.3155" x2="7.99885" y2="27.3155" gradientUnits="userSpaceOnUse">
<stop stop-color="#FF7701"/>
<stop offset="1" stop-color="#091219" stop-opacity="0.54"/>
</linearGradient>
<linearGradient id="paint1_linear_427_4492" x1="4.68506" y1="24" x2="32.0001" y2="24" gradientUnits="userSpaceOnUse">
<stop stop-color="#091219"/>
<stop offset="1" stop-color="#C3E1F5"/>
</linearGradient>
<linearGradient id="paint2_linear_427_4492" x1="24.1304" y1="10.3401" x2="32.0004" y2="10.3401" gradientUnits="userSpaceOnUse">
<stop stop-color="#FF7701"/>
<stop offset="1" stop-color="#F4929C"/>
</linearGradient>
<linearGradient id="paint3_linear_427_4492" x1="8" y1="16" x2="24" y2="16" gradientUnits="userSpaceOnUse">
<stop stop-color="#D4D8E1"/>
<stop offset="1" stop-color="#F3F4F5"/>
</linearGradient>
<linearGradient id="paint4_linear_427_4492" x1="12" y1="16" x2="20" y2="16" gradientUnits="userSpaceOnUse">
<stop stop-color="#474F72"/>
<stop offset="1" stop-color="#878C9F"/>
</linearGradient>
<clipPath id="clip0_427_4492">
<rect width="32" height="32" fill="white"/>
</clipPath>
</defs>
</svg>
