<?xml version="1.0" encoding="UTF-8"?>
<svg version="1.1" xmlns="http://www.w3.org/2000/svg" width="48" height="48">
<path d="M0 0 C2.5 1 2.5 1 4 2 C4.66 1.34 5.32 0.68 6 0 C12.90410959 -0.54794521 12.90410959 -0.54794521 16 1 C17.68477849 4.36955699 17.29650704 7.2640113 17 11 C16.34 11.66 15.68 12.32 15 13 C15.32041397 15.60280568 15.32041397 15.60280568 16 18 C16.928125 17.505 17.85625 17.01 18.8125 16.5 C22 15 22 15 25 15 C25 19.95 25 24.9 25 30 C21.24364431 29.24872886 19.16789693 28.75994274 16 27 C16 28.32 16 29.64 16 31 C13.69 31 11.38 31 9 31 C9.74359673 36.55053286 9.74359673 36.55053286 11 42 C9.35 42 7.7 42 6 42 C5.34 40.68 4.68 39.36 4 38 C3.34 38 2.68 38 2 38 C1.34 39.32 0.68 40.64 0 42 C-1.65 42 -3.3 42 -5 42 C-4.47916667 40.01432292 -3.95833333 38.02864583 -3.4375 36.04296875 C-2.8952993 33.85929991 -2.8952993 33.85929991 -3 31 C-5.31 31 -7.62 31 -10 31 C-10 24.66666667 -10 18.33333333 -10 12 C-10.33 11.67 -10.66 11.34 -11 11 C-11.45714286 3.91428571 -11.45714286 3.91428571 -10 1 C-6.77484295 -0.61257853 -3.49459299 -0.42891383 0 0 Z M2 11 C1.01 12.485 1.01 12.485 0 14 C1.98 14 3.96 14 6 14 C5.34 13.01 4.68 12.02 4 11 C3.34 11 2.68 11 2 11 Z " fill="#5F7C8B" transform="translate(17,4)"/>
<path d="M0 0 C2.5 1 2.5 1 4 2 C4.66 1.34 5.32 0.68 6 0 C12.90410959 -0.54794521 12.90410959 -0.54794521 16 1 C17.63102777 4.26205554 17.51981506 7.43555389 17 11 C16 13 16 13 14 14 C9.42590939 14.36302306 5.93606919 14.62404613 2 12 C1.34 12.66 0.68 13.32 0 14 C-6.90410959 14.54794521 -6.90410959 14.54794521 -10 13 C-11.63102777 9.73794446 -11.51981506 6.56444611 -11 3 C-8.86134267 -1.27731465 -4.20557853 -0.51617765 0 0 Z " fill="#4D616D" transform="translate(17,4)"/>
<path d="M0 0 C0 4.95 0 9.9 0 15 C-5 14 -5 14 -9 12 C-9 9.03 -9 6.06 -9 3 C-3.375 0 -3.375 0 0 0 Z " fill="#455A64" transform="translate(42,19)"/>
<path d="M0 0 C3.3 0 6.6 0 10 0 C10 1.98 10 3.96 10 6 C6.7 6 3.4 6 0 6 C0 4.02 0 2.04 0 0 Z " fill="#455A64" transform="translate(17,23)"/>
<path d="M0 0 C3.96 0 7.92 0 12 0 C12 0.99 12 1.98 12 3 C8.04 3 4.08 3 0 3 C0 2.01 0 1.02 0 0 Z " fill="#455A64" transform="translate(14,35)"/>
</svg>
