<svg width="24" height="24" viewBox="0 0 24 24" fill="none" xmlns="http://www.w3.org/2000/svg">
<g id="Social Icons" clip-path="url(#clip0_2255_7368)">
<path id="Vector" d="M23.522 6.1859C23.3863 5.67531 23.1189 5.20932 22.7465 4.83455C22.3741 4.45979 21.9099 4.1894 21.4002 4.05044C19.5238 3.5459 12.0238 3.5459 12.0238 3.5459C12.0238 3.5459 4.5238 3.5459 2.64744 4.05044C2.13773 4.1894 1.67346 4.45979 1.30109 4.83455C0.92872 5.20932 0.661309 5.67531 0.525622 6.1859C0.0238038 8.07044 0.0238037 12.0004 0.0238037 12.0004C0.0238037 12.0004 0.0238038 15.9304 0.525622 17.815C0.661309 18.3256 0.92872 18.7916 1.30109 19.1663C1.67346 19.5411 2.13773 19.8115 2.64744 19.9504C4.5238 20.455 12.0238 20.455 12.0238 20.455C12.0238 20.455 19.5238 20.455 21.4002 19.9504C21.9099 19.8115 22.3741 19.5411 22.7465 19.1663C23.1189 18.7916 23.3863 18.3256 23.522 17.815C24.0238 15.9304 24.0238 12.0004 24.0238 12.0004C24.0238 12.0004 24.0238 8.07044 23.522 6.1859Z" fill="#FF0302"/>
<path id="Vector_2" d="M9.56927 15.5689V8.43164L15.842 12.0003L9.56927 15.5689Z" fill="#FEFEFE"/>
</g>
<defs>
<clipPath id="clip0_2255_7368">
<rect width="24" height="24" fill="white"/>
</clipPath>
</defs>
</svg>
