<svg width="33" height="32" viewBox="0 0 33 32" fill="none" xmlns="http://www.w3.org/2000/svg">
<g id="Social Icons" clip-path="url(#clip0_2255_11211)">
<path id="Vector" d="M16.8762 0C8.03974 0 0.876221 7.16352 0.876221 16C0.876221 23.5034 6.0423 29.7997 13.0113 31.529V20.8896H9.71206V16H13.0113V13.8931C13.0113 8.44736 15.4759 5.9232 20.8225 5.9232C21.8362 5.9232 23.5853 6.12224 24.3009 6.32064V10.7526C23.9233 10.713 23.2673 10.6931 22.4525 10.6931C19.8292 10.6931 18.8154 11.687 18.8154 14.2707V16H24.0417L23.1437 20.8896H18.8154V31.8829C26.738 30.9261 32.8769 24.1805 32.8769 16C32.8762 7.16352 25.7127 0 16.8762 0Z" fill="white"/>
</g>
<defs>
<clipPath id="clip0_2255_11211">
<rect width="32" height="32" fill="white" transform="translate(0.876221)"/>
</clipPath>
</defs>
</svg>
