<svg width="33" height="32" viewBox="0 0 33 32" fill="none" xmlns="http://www.w3.org/2000/svg">
<g id="Social Icons" clip-path="url(#clip0_2255_11215)">
<path id="Vector" d="M16.8762 2.88125C21.1512 2.88125 21.6575 2.9 23.3387 2.975C24.9012 3.04375 25.745 3.30625 26.3075 3.525C27.0512 3.8125 27.5887 4.1625 28.145 4.71875C28.7075 5.28125 29.0512 5.8125 29.3387 6.55625C29.5575 7.11875 29.82 7.96875 29.8887 9.525C29.9637 11.2125 29.9825 11.7188 29.9825 15.9875C29.9825 20.2625 29.9637 20.7688 29.8887 22.45C29.82 24.0125 29.5575 24.8563 29.3387 25.4188C29.0512 26.1625 28.7012 26.7 28.145 27.2563C27.5825 27.8188 27.0512 28.1625 26.3075 28.45C25.745 28.6688 24.895 28.9313 23.3387 29C21.6512 29.075 21.145 29.0938 16.8762 29.0938C12.6012 29.0938 12.095 29.075 10.4137 29C8.85122 28.9313 8.00747 28.6688 7.44497 28.45C6.70122 28.1625 6.16372 27.8125 5.60747 27.2563C5.04497 26.6938 4.70122 26.1625 4.41372 25.4188C4.19497 24.8563 3.93247 24.0063 3.86372 22.45C3.78872 20.7625 3.76997 20.2563 3.76997 15.9875C3.76997 11.7125 3.78872 11.2063 3.86372 9.525C3.93247 7.9625 4.19497 7.11875 4.41372 6.55625C4.70122 5.8125 5.05122 5.275 5.60747 4.71875C6.16997 4.15625 6.70122 3.8125 7.44497 3.525C8.00747 3.30625 8.85747 3.04375 10.4137 2.975C12.095 2.9 12.6012 2.88125 16.8762 2.88125ZM16.8762 0C12.5325 0 11.9887 0.01875 10.2825 0.09375C8.58247 0.16875 7.41372 0.44375 6.40122 0.8375C5.34497 1.25 4.45122 1.79375 3.56372 2.6875C2.66997 3.575 2.12622 4.46875 1.71372 5.51875C1.31997 6.5375 1.04497 7.7 0.969971 9.4C0.894971 11.1125 0.876221 11.6562 0.876221 16C0.876221 20.3438 0.894971 20.8875 0.969971 22.5938C1.04497 24.2938 1.31997 25.4625 1.71372 26.475C2.12622 27.5313 2.66997 28.425 3.56372 29.3125C4.45122 30.2 5.34497 30.75 6.39497 31.1562C7.41372 31.55 8.57622 31.825 10.2762 31.9C11.9825 31.975 12.5262 31.9937 16.87 31.9937C21.2137 31.9937 21.7575 31.975 23.4637 31.9C25.1637 31.825 26.3325 31.55 27.345 31.1562C28.395 30.75 29.2887 30.2 30.1762 29.3125C31.0637 28.425 31.6137 27.5313 32.02 26.4813C32.4137 25.4625 32.6887 24.3 32.7637 22.6C32.8387 20.8938 32.8575 20.35 32.8575 16.0063C32.8575 11.6625 32.8387 11.1188 32.7637 9.4125C32.6887 7.7125 32.4137 6.54375 32.02 5.53125C31.6262 4.46875 31.0825 3.575 30.1887 2.6875C29.3012 1.8 28.4075 1.25 27.3575 0.84375C26.3387 0.45 25.1762 0.175 23.4762 0.1C21.7637 0.01875 21.22 0 16.8762 0Z" fill="white"/>
<path id="Vector_2" d="M16.8762 7.78125C12.3387 7.78125 8.65747 11.4625 8.65747 16C8.65747 20.5375 12.3387 24.2188 16.8762 24.2188C21.4137 24.2188 25.095 20.5375 25.095 16C25.095 11.4625 21.4137 7.78125 16.8762 7.78125ZM16.8762 21.3312C13.9325 21.3312 11.545 18.9438 11.545 16C11.545 13.0563 13.9325 10.6687 16.8762 10.6687C19.82 10.6687 22.2075 13.0563 22.2075 16C22.2075 18.9438 19.82 21.3312 16.8762 21.3312Z" fill="white"/>
<path id="Vector_3" d="M27.3387 7.45586C27.3387 8.51836 26.4762 9.37461 25.42 9.37461C24.3575 9.37461 23.5012 8.51211 23.5012 7.45586C23.5012 6.39336 24.3637 5.53711 25.42 5.53711C26.4762 5.53711 27.3387 6.39961 27.3387 7.45586Z" fill="white"/>
</g>
<defs>
<clipPath id="clip0_2255_11215">
<rect width="32" height="32" fill="white" transform="translate(0.876221)"/>
</clipPath>
</defs>
</svg>
