<svg width="33" height="32" viewBox="0 0 33 32" fill="none" xmlns="http://www.w3.org/2000/svg">
<g id="Social Icons" clip-path="url(#clip0_2255_11207)">
<path id="Vector" d="M30.5075 0H3.23878C1.93253 0 0.876282 1.03125 0.876282 2.30625V29.6875C0.876282 30.9625 1.93253 32 3.23878 32H30.5075C31.8138 32 32.8763 30.9625 32.8763 29.6938V2.30625C32.8763 1.03125 31.8138 0 30.5075 0ZM10.37 27.2687H5.62003V11.9937H10.37V27.2687ZM7.99503 9.9125C6.47003 9.9125 5.23878 8.68125 5.23878 7.1625C5.23878 5.64375 6.47003 4.4125 7.99503 4.4125C9.51378 4.4125 10.745 5.64375 10.745 7.1625C10.745 8.675 9.51378 9.9125 7.99503 9.9125ZM28.145 27.2687H23.4013V19.8438C23.4013 18.075 23.37 15.7937 20.9325 15.7937C18.4638 15.7937 18.0888 17.725 18.0888 19.7188V27.2687H13.3513V11.9937H17.9013V14.0813H17.9638C18.595 12.8813 20.145 11.6125 22.4513 11.6125C27.2575 11.6125 28.145 14.775 28.145 18.8875V27.2687Z" fill="white"/>
</g>
<defs>
<clipPath id="clip0_2255_11207">
<rect width="32" height="32" fill="white" transform="translate(0.876282)"/>
</clipPath>
</defs>
</svg>
