<svg width="33" height="32" viewBox="0 0 33 32" fill="none" xmlns="http://www.w3.org/2000/svg">
<g id="Social Icons">
<path id="Vector" d="M30.6058 23.5722C25.6504 21.1727 24.8606 17.4679 24.8255 17.1931C24.7829 16.8603 24.7347 16.5986 25.1018 16.26C25.4558 15.9328 27.0264 14.9604 27.4622 14.6562C28.1825 14.1524 28.4997 13.6494 28.2659 13.0312C28.1024 12.6034 27.7042 12.4423 27.2848 12.4423C27.1525 12.4427 27.0206 12.4575 26.8915 12.4865C26.1001 12.6582 25.3315 13.0549 24.8868 13.162C24.8333 13.1758 24.7785 13.1832 24.7233 13.1841C24.4862 13.1841 24.3962 13.0786 24.4191 12.7932C24.4747 11.9279 24.5924 10.2391 24.4559 8.66148C24.2687 6.49094 23.5688 5.41549 22.739 4.46435C22.3375 4.0031 20.4734 2.02148 16.876 2.02148C13.2786 2.02148 11.417 4.0031 11.018 4.45863C10.1857 5.40977 9.48667 6.48522 9.30108 8.65575C9.16454 10.2334 9.28718 11.9214 9.33787 12.7874C9.35422 13.059 9.27083 13.1784 9.03373 13.1784C8.97855 13.1774 8.92367 13.17 8.87021 13.1563C8.42626 13.0492 7.65772 12.6525 6.8663 12.4808C6.7372 12.4518 6.60534 12.437 6.47304 12.4366C6.05198 12.4366 5.65545 12.6002 5.49193 13.0254C5.2581 13.6437 5.57369 14.1467 6.29644 14.6505C6.73221 14.9547 8.3028 15.9263 8.65682 16.2542C9.0231 16.5928 8.97568 16.8545 8.93316 17.1874C8.89801 17.4663 8.1074 21.1711 3.15281 23.5665C2.86256 23.7072 2.36874 24.0049 3.23947 24.4857C4.60648 25.2414 5.51646 25.1604 6.22367 25.616C6.82378 26.0028 6.46895 26.837 6.90554 27.138C7.44188 27.5084 9.02719 27.1118 11.0752 27.7881C12.7922 28.3541 13.8354 29.953 16.8801 29.953C19.9248 29.953 20.9983 28.3467 22.685 27.7881C24.729 27.1118 26.3176 27.5084 26.8547 27.138C27.2905 26.837 26.9365 26.0028 27.5366 25.616C28.2438 25.1604 29.153 25.2414 30.5208 24.4857C31.3899 24.0106 30.8961 23.7129 30.6058 23.5722Z" fill="white"/>
<path id="Vector_2" d="M32.7618 23.2904C32.5394 22.6852 32.1159 22.3614 31.6335 22.0931C31.5428 22.04 31.4594 21.9974 31.3883 21.9647C31.2444 21.8903 31.0972 21.8183 30.9509 21.7423C29.4473 20.9449 28.2733 19.9389 27.4589 18.7465C27.2277 18.4109 27.0271 18.055 26.8596 17.6834C26.7901 17.4846 26.7934 17.3718 26.8433 17.2687C26.8928 17.1893 26.9582 17.1211 27.0354 17.0683C27.2938 16.8974 27.5603 16.724 27.741 16.6071C28.0631 16.3985 28.3182 16.2333 28.4826 16.1164C29.0998 15.6846 29.5315 15.2258 29.8013 14.713C29.9896 14.3587 30.0993 13.968 30.1232 13.5675C30.147 13.167 30.0844 12.7661 29.9395 12.392C29.5307 11.3157 28.5144 10.6475 27.2832 10.6475C27.0234 10.6473 26.7644 10.6747 26.5105 10.7293C26.4427 10.744 26.3748 10.7596 26.3086 10.7767C26.32 10.0407 26.3037 9.26376 26.2383 8.49908C26.0061 5.81086 25.065 4.40174 24.0839 3.27803C23.4557 2.57387 22.7156 1.97814 21.8936 1.51478C20.4048 0.664238 18.7165 0.232422 16.8761 0.232422C15.0357 0.232422 13.3555 0.664238 11.8651 1.51478C11.041 1.97828 10.2995 2.57521 9.67065 3.28131C8.68954 4.40501 7.7485 5.81659 7.5163 8.50236C7.45089 9.26703 7.43454 10.0481 7.44517 10.78C7.37894 10.7628 7.3119 10.7473 7.24404 10.7326C6.99013 10.678 6.73113 10.6506 6.47142 10.6508C5.23931 10.6508 4.22141 11.319 3.81425 12.3952C3.66872 12.7695 3.60544 13.1708 3.62872 13.5717C3.652 13.9726 3.76128 14.3638 3.94916 14.7187C4.21978 15.2315 4.65147 15.6903 5.26875 16.1221C5.43226 16.2366 5.68817 16.4018 6.0103 16.6128C6.18445 16.7257 6.43872 16.8909 6.68808 17.0561C6.77533 17.1125 6.84948 17.187 6.90556 17.2744C6.95789 17.3816 6.95952 17.4969 6.88185 17.7095C6.71665 18.0734 6.51937 18.4218 6.29237 18.7506C5.49604 19.916 4.35632 20.904 2.90101 21.6948C2.13002 22.1037 1.32878 22.3769 0.990302 23.297C0.735214 23.9913 0.902002 24.7813 1.55035 25.447C1.7883 25.6955 2.06428 25.9045 2.36794 26.0662C2.99976 26.4135 3.67161 26.6824 4.36858 26.8668C4.51241 26.9039 4.64895 26.965 4.77247 27.0476C5.00875 27.2545 4.97523 27.5661 5.29 28.0224C5.44801 28.2583 5.64879 28.4624 5.88194 28.6243C6.54255 29.0807 7.28492 29.1093 8.07144 29.1396C8.78193 29.1666 9.58725 29.1976 10.507 29.5011C10.888 29.627 11.2838 29.8707 11.7424 30.1553C12.8437 30.8325 14.3513 31.7591 16.8744 31.7591C19.3975 31.7591 20.9158 30.8276 22.0252 30.148C22.4806 29.8683 22.8739 29.627 23.2443 29.5043C24.1641 29.2001 24.9694 29.1698 25.6799 29.1428C26.4664 29.1126 27.2088 29.084 27.8694 28.6276C28.1455 28.435 28.3756 28.1836 28.5431 27.8916C28.7695 27.5064 28.7638 27.2373 28.9764 27.0492C29.0923 26.9706 29.2205 26.912 29.3557 26.8758C30.0622 26.6908 30.7432 26.4194 31.3834 26.0678C31.706 25.8947 31.9964 25.6672 32.2418 25.3955L32.25 25.3857C32.8583 24.7347 33.0112 23.9676 32.7618 23.2904ZM30.5192 24.4959C29.1513 25.2516 28.2422 25.1706 27.535 25.6262C26.934 26.013 27.2897 26.8472 26.8531 27.1481C26.3168 27.5186 24.7315 27.122 22.6834 27.7983C20.9943 28.3569 19.9167 29.9631 16.8785 29.9631C13.8404 29.9631 12.7881 28.3602 11.0712 27.7942C9.0272 27.1179 7.43863 27.5145 6.90147 27.1441C6.4657 26.8431 6.81971 26.0089 6.2196 25.6221C5.51157 25.1665 4.60241 25.2475 3.2354 24.4959C2.36467 24.015 2.85849 23.7173 3.14874 23.5767C8.10333 21.1771 8.89394 17.4724 8.92909 17.1976C8.97161 16.8647 9.01903 16.603 8.65275 16.2644C8.29873 15.9373 6.72814 14.9649 6.29237 14.6606C5.57125 14.1569 5.25403 13.6539 5.48786 13.0356C5.65138 12.6079 6.05036 12.4468 6.46897 12.4468C6.60127 12.4472 6.73313 12.462 6.86223 12.4909C7.65365 12.6627 8.42219 13.0593 8.86614 13.1665C8.91959 13.1802 8.97448 13.1876 9.02966 13.1885C9.26676 13.1885 9.35015 13.0691 9.3338 12.7976C9.28311 11.9315 9.16047 10.2435 9.29701 8.66592C9.48424 6.49539 10.1833 5.41994 11.0139 4.4688C11.4129 4.01163 13.2877 2.03002 16.8728 2.03002C20.4579 2.03002 22.3376 4.00345 22.7365 4.45899C23.568 5.41013 24.2679 6.48558 24.4535 8.65611C24.59 10.2337 24.4723 11.9225 24.4167 12.7878C24.3979 13.0732 24.4837 13.1787 24.7208 13.1787C24.776 13.1778 24.8309 13.1704 24.8843 13.1566C25.3291 13.0495 26.0977 12.6529 26.8891 12.4811C27.0182 12.4522 27.15 12.4374 27.2823 12.437C27.7034 12.437 28.0999 12.6005 28.2634 13.0258C28.4973 13.6441 28.1817 14.147 27.4598 14.6508C27.024 14.9551 25.4534 15.9267 25.0994 16.2546C24.7323 16.5932 24.7805 16.8549 24.823 17.1877C24.8582 17.4666 25.648 21.1714 30.6034 23.5669C30.8961 23.7132 31.3899 24.0109 30.5192 24.4959Z" fill="black"/>
</g>
</svg>
