<svg width="33" height="32" viewBox="0 0 33 32" fill="none" xmlns="http://www.w3.org/2000/svg">
<g id="Social Icons">
<path id="Vector" d="M0.876221 31.9999L3.12555 23.7826C1.73755 21.3773 1.00822 18.6506 1.00955 15.8546C1.01355 7.11332 8.12687 0 16.8669 0C21.1082 0.00133333 25.0895 1.65333 28.0842 4.65066C31.0775 7.64798 32.7255 11.632 32.7242 15.8693C32.7202 24.6119 25.6068 31.7253 16.8669 31.7253C14.2135 31.7239 11.5989 31.0586 9.28287 29.7946L0.876221 31.9999ZM9.6722 26.9239C11.9069 28.2506 14.0402 29.0453 16.8615 29.0466C24.1255 29.0466 30.0428 23.1346 30.0468 15.8666C30.0495 8.58398 24.1602 2.67999 16.8722 2.67733C9.60287 2.67733 3.68955 8.58931 3.68688 15.856C3.68555 18.8226 4.55488 21.044 6.01488 23.3679L4.68288 28.2319L9.6722 26.9239ZM24.8548 19.6386C24.7562 19.4733 24.4922 19.3746 24.0948 19.176C23.6988 18.9773 21.7508 18.0186 21.3868 17.8866C21.0242 17.7546 20.7602 17.688 20.4948 18.0853C20.2308 18.4813 19.4708 19.3746 19.2402 19.6386C19.0095 19.9026 18.7775 19.936 18.3815 19.7373C17.9855 19.5386 16.7082 19.1213 15.1949 17.7706C14.0175 16.72 13.2215 15.4226 12.9909 15.0253C12.7602 14.6293 12.9669 14.4146 13.1642 14.2173C13.3429 14.04 13.5602 13.7546 13.7589 13.5226C13.9602 13.2933 14.0255 13.128 14.1589 12.8626C14.2909 12.5986 14.2255 12.3666 14.1255 12.168C14.0255 11.9706 13.2335 10.02 12.9042 9.22665C12.5815 8.45465 12.2549 8.55865 12.0122 8.54665L11.2522 8.53331C10.9882 8.53331 10.5589 8.63198 10.1962 9.02931C9.83353 9.42665 8.80954 10.384 8.80954 12.3346C8.80954 14.2853 10.2295 16.1693 10.4269 16.4333C10.6255 16.6973 13.2202 20.7 17.1949 22.416C18.1402 22.8239 18.8788 23.0679 19.4535 23.2506C20.4028 23.5519 21.2668 23.5093 21.9495 23.4079C22.7108 23.2946 24.2935 22.4493 24.6242 21.524C24.9548 20.5973 24.9548 19.804 24.8548 19.6386Z" fill="white"/>
</g>
</svg>
