<svg width="83" height="42" viewBox="0 0 83 42" fill="none" xmlns="http://www.w3.org/2000/svg">
<g id="Group">
<g id="Group_2">
<path id="Vector" d="M4.67102 26.1282H2.80183L0 41.23H1.70684L2.22508 38.1275H5.27568L5.81132 41.23H7.51127L4.67102 26.1282ZM2.65359 35.5818L3.74198 29.1512L4.83726 35.5818H2.65359Z" fill="white"/>
<path id="Vector_2" d="M12.7695 26.0876V35.5615C12.7695 36.735 12.6486 37.5901 12.4034 38.1273C12.1583 38.6576 11.7712 38.9231 11.2355 38.9231C10.7071 38.9231 10.3236 38.6576 10.0817 38.121C9.83988 37.5837 9.71895 36.7286 9.71895 35.562V26.0876H8.08142V35.8995C8.08142 37.7622 8.35449 39.181 8.89673 40.1685C9.44257 41.1561 10.2234 41.6536 11.246 41.6536C12.2618 41.6536 13.039 41.1561 13.578 40.1685C14.1205 39.1741 14.39 37.7553 14.39 35.8995V26.0876H12.7695Z" fill="white"/>
<path id="Vector_3" d="M21.7626 28.0042C21.1684 26.7512 20.2667 26.1282 19.061 26.1282H15.9759V41.23H18.6223C19.341 41.23 19.9006 41.1304 20.3012 40.9185C20.6985 40.7129 21.0544 40.368 21.3689 39.8906C21.7869 39.2475 22.1047 38.3993 22.3225 37.345C22.5437 36.2907 22.6508 35.078 22.6508 33.692C22.6505 31.1533 22.3532 29.2571 21.7626 28.0042ZM20.4945 37.3715C20.1593 38.1275 19.6134 38.5052 18.8602 38.5052H17.5648V28.7798H19.0607C19.7275 28.7798 20.2145 29.1777 20.529 29.9729C20.8435 30.7686 20.9989 32.0084 20.9989 33.692C20.9989 35.3895 20.8333 36.616 20.4945 37.3715Z" fill="white"/>
<path id="Vector_4" d="M23.9874 26.1282V41.23H25.6078V26.1282H23.9874Z" fill="white"/>
<path id="Vector_5" d="M26.5891 26.1282V28.8264H28.9246V41.23H30.545V28.8264H32.8631V26.1282H26.5891Z" fill="white"/>
<path id="Vector_6" d="M42.7096 34.6732C42.5472 34.1095 42.3087 33.6586 41.9876 33.3143C41.8078 33.122 41.6008 32.9498 41.3589 32.7909C41.1207 32.6383 40.7129 32.4195 40.1394 32.1345C40.0047 32.0746 39.8147 31.9888 39.5729 31.8823C38.678 31.4844 38.2288 30.8878 38.2288 30.0857C38.2288 29.4955 38.3461 29.0447 38.5742 28.7268C38.8056 28.4084 39.1302 28.2495 39.5554 28.2495C40.0425 28.2495 40.4191 28.4418 40.6852 28.8264C40.9478 29.2042 41.093 29.7679 41.1207 30.4968H42.6754C42.6478 28.979 42.3747 27.8055 41.8564 26.97C41.3382 26.1345 40.6195 25.717 39.7007 25.717C38.7161 25.717 37.9662 26.108 37.4447 26.8905C36.9265 27.6731 36.6639 28.7999 36.6639 30.2717C36.6639 31.0537 36.7365 31.7366 36.885 32.3135C37.0303 32.8968 37.2409 33.3546 37.5209 33.6926C37.8318 34.0772 38.3569 34.4222 39.093 34.7337C39.1656 34.7671 39.2209 34.7866 39.2554 34.8068L39.3037 34.827C40.6753 35.4235 41.3628 36.1859 41.3628 37.1008C41.3628 37.7308 41.2419 38.2081 41.0036 38.526C40.7654 38.8507 40.4128 39.0096 39.9428 39.0096C39.3901 39.0096 38.9652 38.811 38.675 38.4062C38.3812 38.0083 38.2051 37.3916 38.1463 36.5699H36.5466C36.5916 38.1943 36.8919 39.4473 37.4552 40.3288C38.0184 41.2104 38.7956 41.6549 39.7871 41.6549C40.7891 41.6549 41.5699 41.2242 42.1226 40.3553C42.6718 39.4933 42.9484 38.2738 42.9484 36.7024C42.9478 35.9129 42.8683 35.2369 42.7096 34.6732Z" fill="white"/>
<path id="Vector_7" d="M43.5042 26.1282V28.8264H45.8397V41.23H47.4601V28.8264H49.7782V26.1282H43.5042Z" fill="white"/>
<path id="Vector_8" d="M54.183 26.1282H52.3139L49.512 41.23H51.2153L51.7371 38.1275H54.7877L55.3197 41.23H57.0194L54.183 26.1282ZM52.162 35.5818L53.2537 29.1512L54.349 35.5818H52.162Z" fill="white"/>
<path id="Vector_9" d="M56.7364 26.1282V28.8264H59.0719V41.23H60.6923V28.8264H63.014V26.1282H56.7364Z" fill="white"/>
<path id="Vector_10" d="M64.002 26.1282V41.23H65.6188V26.1282H64.002Z" fill="white"/>
<path id="Vector_11" d="M73.6171 27.8913C72.9227 26.4529 71.9864 25.7366 70.8083 25.7366C69.6335 25.7366 68.7009 26.4529 68.0065 27.8844C67.3154 29.3164 66.9664 31.2523 66.9664 33.692C66.9664 36.1317 67.3154 38.0607 68.0065 39.4996C68.7009 40.938 69.6338 41.6543 70.8083 41.6543C71.9864 41.6543 72.9227 40.9386 73.6171 39.4996C74.3151 38.0612 74.664 36.1317 74.664 33.692C74.6637 31.2592 74.3151 29.3233 73.6171 27.8913ZM72.439 37.5637C72.0519 38.485 71.5096 38.9428 70.8083 38.9428C70.1173 38.9428 69.5819 38.4856 69.1948 37.5637C68.8113 36.6488 68.6178 35.3561 68.6178 33.692C68.6178 32.0279 68.8113 30.7352 69.1948 29.8202C69.5819 28.9053 70.1173 28.4412 70.8083 28.4412C71.5096 28.4412 72.0522 28.9053 72.439 29.8266C72.8294 30.7415 73.0229 32.0342 73.0229 33.6914C73.0229 35.3561 72.8294 36.6488 72.439 37.5637Z" fill="white"/>
<path id="Vector_12" d="M80.8343 26.1282V36.5031L77.6384 26.1282H75.9454V41.23H77.5451V30.855L80.7616 41.23H82.434V26.1282H80.8343Z" fill="white"/>
</g>
<g id="Group_3">
<path id="Vector_13" d="M5.60037 1.04858C5.04072 1.04858 4.57771 1.92382 4.57771 3.01095C4.57771 4.09175 5.04072 4.97331 5.60037 4.97331C6.15672 4.97331 6.62303 4.09175 6.62303 3.01095C6.62333 1.93706 6.16722 1.04858 5.60037 1.04858ZM8.51293 1.04858C7.95658 1.04858 7.49027 1.93706 7.49027 3.01095C7.49027 3.52803 7.60069 4.04511 7.79424 4.39002C7.97399 4.76142 8.24346 4.97331 8.51293 4.97331C9.06567 4.97331 9.53559 4.09175 9.53559 3.01095C9.53559 1.93706 9.07948 1.04858 8.51293 1.04858Z" fill="white"/>
<path id="Vector_14" d="M11.1662 18.9878C10.6066 18.9878 10.1436 19.863 10.1436 20.9502C10.1436 22.024 10.5961 22.9062 11.1662 22.9062C11.7295 22.9062 12.1889 22.0442 12.1889 20.9502C12.1889 19.8826 11.7331 18.9878 11.1662 18.9878ZM14.8077 19.5578C14.6108 19.1997 14.3585 18.9878 14.0857 18.9878C13.5225 18.9878 13.063 19.8498 13.063 20.9502C13.063 22.0373 13.5053 22.9062 14.0857 22.9062C14.6453 22.9062 15.1051 22.0379 15.1051 20.9502C15.1051 20.4198 14.9943 19.9356 14.8077 19.5578Z" fill="white"/>
<path id="Vector_15" d="M18.6841 1.00879C18.1245 1.00879 17.6614 1.87711 17.6614 2.96425C17.6614 4.04504 18.1176 4.92661 18.6841 4.92661C19.2474 4.92661 19.7068 4.06462 19.7068 2.96425C19.7068 1.87711 19.2645 1.00879 18.6841 1.00879ZM21.6036 1.00879C21.0403 1.00879 20.5809 1.87078 20.5809 2.96425C20.5809 4.04504 21.037 4.92661 21.6036 4.92661C22.1632 4.92661 22.6229 4.05138 22.6229 2.96425C22.6229 1.89036 22.1737 1.00879 21.6036 1.00879Z" fill="white"/>
<path id="Vector_16" d="M20.1455 6.44507C18.5389 6.51129 17.2848 8.87787 17.271 11.9809V13.5523H14.7594V8.44083C14.6973 7.24084 14.3585 6.57808 13.74 6.45198C13.1077 6.57808 12.7693 7.24084 12.7173 8.44083V13.5523H9.93621V12.0143C9.9017 8.91818 8.66837 6.5585 7.05485 6.48537C5.44493 6.5585 4.2011 8.91185 4.1873 12.0143V15.5544C4.23921 16.7544 4.58461 17.4172 5.20997 17.5168H7.88397C7.83205 18.392 7.56259 18.8757 7.07886 18.9753H3.11962C2.6395 18.8757 2.37003 18.392 2.31121 17.5168C2.31121 17.4701 2.31121 17.4304 2.30761 17.3976V12.3725C2.30071 12.2729 2.29381 12.1802 2.29021 12.0938C2.18998 11.0729 1.85839 10.5091 1.28494 10.4101C0.659576 10.5097 0.314189 11.1725 0.262276 12.3725V17.3976C0.272778 20.4805 1.5163 22.854 3.11962 22.9202H7.07886C8.65787 22.854 9.9014 20.5335 9.93591 17.4972H21.9937C22.5983 17.3976 22.9437 16.7682 23.0196 15.6143C23.0265 15.5878 23.0265 15.5677 23.0265 15.5348V11.9815C22.9923 8.89803 21.7521 6.51129 20.1455 6.44507ZM7.88067 13.5713H6.24314V12.0132C6.28455 11.0585 6.55402 10.5351 7.05515 10.4354C7.55268 10.5351 7.82906 11.0585 7.88097 12.0132V13.5713H7.88067ZM20.9713 13.5517H19.3302V11.9803C19.3683 11.0256 19.6377 10.5022 20.1455 10.3957C20.643 10.5017 20.9158 11.0256 20.9713 11.9803V13.5517Z" fill="white"/>
<path id="Vector_17" d="M39.7211 2.96433V11.9671C39.7211 12.5176 39.6797 13.0479 39.6037 13.5518V13.5719L39.5968 13.5852C39.4654 14.4207 39.2307 15.183 38.892 15.8458C38.3494 16.9134 37.6688 17.4633 36.864 17.4967H25.221C24.5923 17.3573 24.2466 16.7009 24.1947 15.5078C24.2466 14.3147 24.592 13.6514 25.221 13.5524H28.4408V11.9677C28.3889 10.9934 28.1125 10.4764 27.6186 10.3963H26.0639C25.4385 10.2639 25.0931 9.60056 25.0412 8.41439C25.0931 7.2144 25.4385 6.55797 26.0639 6.45202H27.6186C29.2354 6.47851 30.4688 8.88482 30.5033 11.9677V13.5524H33.0149V8.44087C33.0668 7.24088 33.4122 6.57812 34.0376 6.45202C34.6629 6.57812 35.0014 7.24088 35.0639 8.44087V13.5524H36.8637C37.3438 13.4464 37.6133 12.9691 37.6688 12.0938C37.6757 12.0472 37.6757 12.0011 37.6757 11.9677V2.96433C37.6826 2.87796 37.6895 2.78525 37.6931 2.69888C37.7934 1.66473 38.125 1.10792 38.6984 1.0083C39.3238 1.10792 39.6692 1.76434 39.7211 2.96433Z" fill="white"/>
<path id="Vector_18" d="M34.0619 1.00879C33.4986 1.00879 33.0392 1.87078 33.0392 2.96425C33.0392 4.05138 33.4953 4.92661 34.0619 4.92661C34.6146 4.92661 35.0846 4.05138 35.0846 2.96425C35.0846 1.89036 34.6284 1.00879 34.0619 1.00879ZM31.1424 1.00879C30.5828 1.00879 30.1234 1.87078 30.1234 2.96425C30.1234 4.04504 30.5726 4.92661 31.1424 4.92661C31.7057 4.92661 32.1651 4.05138 32.1651 2.96425C32.1651 1.89036 31.709 1.00879 31.1424 1.00879Z" fill="white"/>
<path id="Vector_19" d="M41.9113 1.02832C41.286 1.15442 40.9406 1.80394 40.8887 2.99069V15.5336C40.9406 16.7336 41.286 17.3963 41.9113 17.496C42.5298 17.3963 42.8683 16.7336 42.934 15.5336V2.99069C42.8683 1.80394 42.5298 1.15442 41.9113 1.02832Z" fill="white"/>
<path id="Vector_20" d="M47.9783 0.94896C47.7814 0.571227 47.5396 0.378906 47.2596 0.378906C46.9799 0.378906 46.7414 0.571227 46.5409 0.94896C46.3441 1.3336 46.2438 1.7908 46.2438 2.32803C46.2438 2.86526 46.3441 3.32936 46.5409 3.7071C46.7414 4.09174 46.9796 4.27715 47.2596 4.27715C47.5396 4.27715 47.7814 4.09174 47.9783 3.7071C48.1787 3.32936 48.2754 2.86526 48.2754 2.32803C48.2754 1.7908 48.1784 1.3336 47.9783 0.94896ZM51.0115 0.94896C50.8146 0.571227 50.5728 0.378906 50.2928 0.378906C50.0059 0.378906 49.7677 0.571227 49.5708 0.94896C49.3704 1.3336 49.2701 1.7908 49.2701 2.32803C49.2701 2.86526 49.3704 3.32936 49.5708 3.7071C49.7677 4.09174 50.0062 4.27715 50.2928 4.27715C50.5728 4.27715 50.8146 4.09174 51.0115 3.7071C51.2119 3.32936 51.3086 2.86526 51.3086 2.32803C51.3086 1.7908 51.2119 1.3336 51.0115 0.94896Z" fill="white"/>
<path id="Vector_21" d="M79.5421 6.45137C77.9217 6.51758 76.6782 8.87784 76.6677 11.9936V13.5517H73.6585V11.9671C73.624 8.87783 72.4045 6.47785 70.7804 6.45137H67.8163C67.1945 6.55731 66.8488 7.21374 66.7972 8.41373C66.8491 9.60048 67.1945 10.2632 67.8163 10.3957H70.7804C71.2744 10.4751 71.5507 10.9922 71.6027 11.9671V13.5517H63.9326V11.7747C63.8981 8.59281 62.6198 6.10645 60.9478 6.07997H56.9747V2.30782C56.9057 1.06119 56.6155 0.557358 55.959 0.345459C55.4926 0.431831 55.1817 0.815898 55.0365 1.48557L55.0122 1.59843C54.9708 1.81032 54.9501 2.04928 54.9363 2.30782V13.5517H52.6284V13.5586H52.0858V11.815C52.0825 10.2304 51.7888 8.88474 51.2222 7.79761C50.6557 6.69724 49.9544 6.14043 49.1184 6.10703C48.2962 6.14043 47.6015 6.69724 47.028 7.79761C46.4546 8.88474 46.1644 10.2304 46.147 11.815V15.5342C46.1989 16.383 46.3784 16.9593 46.6997 17.2576C46.8345 17.3837 47.0004 17.4632 47.1799 17.496H81.3867C81.9947 17.3964 82.3404 16.767 82.4196 15.6131V11.9936C82.3854 8.89799 81.159 6.51758 79.5421 6.45137ZM50.0375 13.5713H48.1959V11.8012C48.2547 10.7337 48.5656 10.1504 49.1184 10.0312C49.6849 10.1504 49.9958 10.7469 50.0372 11.8145V13.5713H50.0375ZM61.8774 13.5517H56.975V10.0179H60.955C61.511 10.0974 61.8186 10.6876 61.8774 11.7747V13.5517ZM80.3643 13.5517H78.7232V11.9936C78.7646 11.0389 79.0341 10.5022 79.5421 10.3957C80.0397 10.5016 80.3124 11.0389 80.3643 11.9936V13.5517Z" fill="white"/>
</g>
</g>
</svg>
