<svg width="301" height="301" viewBox="0 0 301 301" fill="none" xmlns="http://www.w3.org/2000/svg">
<path d="M224.307 42.8958L223.931 43.2721C218.892 48.3061 211.187 49.3862 204.872 46.0896C188.707 37.6516 170.34 32.8816 150.876 32.8816C132.099 32.8767 113.993 37.268 97.7351 45.5618C91.5354 48.7239 83.9941 47.4557 79.0749 42.5341L78.6863 42.1456C70.9275 34.3869 72.9753 21.3034 82.7453 16.311C103.585 5.66393 126.798 0.0263672 150.876 0.0263672C175.944 0.0263672 199.604 6.20887 220.405 17.1321C230.06 22.2027 232.022 35.1884 224.307 42.8958Z" fill="#091219"/>
<path d="M43.9829 223.014L43.5968 223.4C35.8697 231.12 22.8839 229.108 17.818 219.431C6.74311 198.269 0.87085 174.605 0.87085 150.031C0.87085 125.484 6.72599 101.837 17.7789 80.6893C22.8423 71.0026 35.838 68.9939 43.5675 76.7208L43.9535 77.1069C48.9754 82.1287 50.08 89.8116 46.8054 96.1138C38.2548 112.572 33.7242 130.951 33.7242 150.031C33.7242 169.131 38.267 187.527 46.8347 203.995C50.119 210.299 49.0121 217.99 43.9829 223.014Z" fill="#091219"/>
<path d="M224.182 257.33C231.909 265.057 229.901 278.055 220.214 283.118C199.063 294.171 175.418 300.026 150.871 300.026C126.712 300.026 103.424 294.354 82.53 283.634C72.7723 278.627 70.7367 265.553 78.4955 257.804L78.884 257.416C83.8374 252.467 91.4154 251.267 97.6517 254.454C100.389 255.852 103.179 257.14 106.017 258.317C120.053 264.126 135.226 267.168 150.871 267.176C169.951 267.176 188.331 262.645 204.789 254.095C211.091 250.82 218.774 251.925 223.796 256.946L224.182 257.33Z" fill="#091219"/>
<path d="M258.756 222.212L258.367 221.824C253.446 216.902 252.177 209.361 255.34 203.164C263.634 186.906 268.025 168.803 268.02 150.024C268.02 130.909 263.426 112.86 255.276 96.9105C252.102 90.6962 253.348 83.1355 258.287 78.2017L258.661 77.8278C266.405 70.0936 279.471 72.1023 284.461 81.8428C294.95 102.313 300.871 125.492 300.871 150.024C300.871 174.101 295.236 197.316 284.586 218.153C279.598 227.923 266.515 229.969 258.756 222.212Z" fill="#091219"/>
<path d="M136.101 131.003L132.683 134.417C126.366 140.724 116.134 140.721 109.822 134.409L43.5359 68.1269C37.2629 61.854 37.2287 51.7176 43.4186 45.3665C43.878 44.8949 44.3423 44.4257 44.8091 43.959C45.6228 43.1452 46.4464 42.3413 47.2748 41.5471C53.6064 35.4916 63.6403 35.6602 69.8351 41.855L136.106 108.125C142.428 114.442 142.423 124.688 136.101 131.003Z" fill="#091219"/>
<path d="M256.946 256.09C256.479 256.557 256.01 257.021 255.538 257.48C249.187 263.673 239.048 263.636 232.777 257.363L167.339 191.926C161.022 185.61 161.025 175.366 167.344 169.051L170.763 165.635C177.08 159.325 187.314 159.328 193.629 165.64L259.052 231.062C265.247 237.257 265.416 247.29 259.36 253.622C258.563 254.453 257.759 255.274 256.946 256.09Z" fill="#091219"/>
<path d="M135.891 169.038C142.208 175.355 142.205 185.599 135.886 191.913L86.8844 240.865L82.5444 245.205L69.6733 258.054C63.4956 264.221 53.4788 264.434 47.174 258.396C46.3798 257.636 45.5929 256.864 44.8134 256.084C44.3613 255.632 43.9117 255.175 43.4645 254.718C37.2696 248.367 37.3087 238.221 43.5866 231.95L56.3306 219.221L60.6707 214.893L109.806 165.807C116.123 159.498 126.358 159.5 132.67 165.812L135.891 169.038Z" fill="#091219"/>
<path d="M166.472 161.368L163.054 164.784C156.737 171.094 146.502 171.092 140.188 164.78L136.967 161.559C130.65 155.242 130.652 144.998 136.972 138.684L140.391 135.267C146.708 128.958 156.942 128.96 163.256 135.272L166.477 138.493C172.794 144.81 172.792 155.054 166.472 161.368Z" fill="#091219"/>
<path d="M259.266 46.4316C265.322 52.7656 265.148 62.8042 258.946 68.9965L246.075 81.8477L241.74 86.1828L193.638 134.235C187.321 140.545 177.087 140.542 170.774 134.23L167.554 131.01C161.237 124.693 161.239 114.449 167.558 108.134L215.81 59.9353L220.133 55.6124L232.889 42.876C239.162 36.6129 249.303 36.5738 255.642 42.7685C256.063 43.179 256.48 43.592 256.896 44.0099C257.695 44.8065 258.484 45.6129 259.266 46.4316Z" fill="#091219"/>
</svg>
