<svg width="48" height="48" viewBox="0 0 48 48" fill="none" xmlns="http://www.w3.org/2000/svg">
<g id="Group">
<path id="Vector" d="M35.7498 6.8591L35.6896 6.91931C34.8834 7.72474 33.6506 7.89756 32.6402 7.37012C30.0538 6.02004 27.1151 5.25683 24.0008 5.25683C20.9964 5.25605 18.0996 5.95865 15.4983 7.28567C14.5063 7.7916 13.2997 7.58868 12.5126 6.80123L12.4505 6.73907C11.2091 5.49768 11.5367 3.40433 13.0999 2.60554C16.4343 0.902009 20.1484 0 24.0008 0C28.0116 0 31.7973 0.989199 35.1254 2.73691C36.6702 3.54821 36.9842 5.62592 35.7498 6.8591Z" fill="white"/>
<path id="Vector_2" d="M6.89792 35.678L6.83614 35.7397C5.59982 36.9749 3.52208 36.6531 2.71155 35.1048C0.939561 31.7188 0 27.9325 0 24.0007C0 20.0732 0.936821 16.2897 2.70529 12.9061C3.51543 11.3562 5.59474 11.0348 6.83145 12.2711L6.89322 12.3329C7.69672 13.1363 7.87345 14.3656 7.34952 15.374C5.98143 18.0073 5.25653 20.9479 5.25653 24.0007C5.25653 27.0567 5.98338 30 7.35421 32.6349C7.8797 33.6436 7.70259 34.8741 6.89792 35.678Z" fill="white"/>
<path id="Vector_3" d="M35.7298 41.1688C36.9661 42.4051 36.6447 44.4847 35.0948 45.2948C31.7108 47.0633 27.9275 48.0001 24 48.0001C20.1346 48.0001 16.4084 47.0926 13.0654 45.3773C11.5042 44.5762 11.1785 42.4844 12.4199 41.2446L12.4821 41.1824C13.2746 40.3907 14.4871 40.1987 15.4849 40.7086C15.9228 40.9322 16.3693 41.1383 16.8233 41.3267C19.0691 42.2561 21.4968 42.7429 24 42.744C27.0529 42.744 29.9935 42.0191 32.6269 40.6511C33.6352 40.1272 34.8645 40.3039 35.668 41.1074L35.7298 41.1688Z" fill="white"/>
<path id="Vector_4" d="M41.2616 35.5497L41.1994 35.4875C40.4119 34.7001 40.209 33.4935 40.7149 32.5019C42.042 29.9007 42.7446 27.0043 42.7438 23.9995C42.7438 20.9412 42.0087 18.0534 40.7048 15.5014C40.1969 14.5071 40.3963 13.2974 41.1865 12.508L41.2463 12.4482C42.4854 11.2107 44.576 11.5321 45.3744 13.0906C47.0526 16.3659 47.9999 20.0744 47.9999 23.9995C47.9999 27.8519 47.0983 31.5663 45.3944 34.9002C44.5963 36.4634 42.503 36.7907 41.2616 35.5497Z" fill="white"/>
<path id="Vector_5" d="M21.6368 20.9562L21.0898 21.5024C20.0791 22.5115 18.442 22.5111 17.4321 21.5012L6.82634 10.896C5.82266 9.89238 5.81718 8.27056 6.80757 7.25438C6.88108 7.17892 6.95537 7.10385 7.03005 7.02918C7.16025 6.89898 7.29201 6.77034 7.42456 6.64327C8.43763 5.6744 10.043 5.70138 11.0342 6.69254L21.6376 17.2957C22.6491 18.3064 22.6483 19.9458 21.6368 20.9562Z" fill="white"/>
<path id="Vector_6" d="M40.9719 40.9702C40.8972 41.0449 40.8222 41.1191 40.7467 41.1927C39.7305 42.1834 38.1083 42.1776 37.105 41.1739L26.6349 30.704C25.6242 29.6933 25.6246 28.0543 26.6357 27.044L27.1827 26.4974C28.1934 25.4879 29.8309 25.4882 30.8413 26.4982L41.3089 36.9657C42.3001 37.9568 42.3271 39.5622 41.3582 40.5753C41.2307 40.7082 41.1021 40.8396 40.9719 40.9702Z" fill="white"/>
<path id="Vector_7" d="M21.6031 27.0419C22.6138 28.0526 22.6134 29.6916 21.6023 30.7019L13.7621 38.5342L13.0677 39.2286L11.0083 41.2844C10.0199 42.2712 8.41721 42.3052 7.40844 41.3391C7.28137 41.2175 7.15547 41.094 7.03074 40.9692C6.95841 40.8969 6.88646 40.8238 6.81491 40.7507C5.82374 39.7345 5.83 38.1111 6.83446 37.1078L8.8735 35.0712L9.5679 34.3787L17.4296 26.525C18.4403 25.5154 20.0778 25.5158 21.0878 26.5258L21.6031 27.0419Z" fill="white"/>
<path id="Vector_8" d="M26.4961 25.8146L25.9491 26.3612C24.9383 27.3708 23.3009 27.3704 22.2905 26.3605L21.7752 25.8451C20.7645 24.8344 20.7649 23.1954 21.776 22.1851L22.323 21.6385C23.3337 20.629 24.9712 20.6294 25.9815 21.6393L26.4968 22.1546C27.5076 23.1653 27.5072 24.8043 26.4961 25.8146Z" fill="white"/>
<path id="Vector_9" d="M41.3433 7.42484C42.3122 8.43828 42.2844 10.0445 41.2921 11.0352L39.2327 13.0914L38.5391 13.785L30.8428 21.4734C29.832 22.4829 28.1946 22.4826 27.1846 21.4726L26.6693 20.9573C25.6586 19.9466 25.659 18.3076 26.6701 17.2973L34.3903 9.58544L35.0819 8.89378L37.1229 6.85595C38.1266 5.85385 39.7492 5.84759 40.7635 6.83875C40.8307 6.90443 40.8976 6.97051 40.964 7.03737C41.0919 7.16483 41.2182 7.29386 41.3433 7.42484Z" fill="white"/>
</g>
</svg>
