<svg width="90" height="90" viewBox="0 0 90 90" fill="none" xmlns="http://www.w3.org/2000/svg">
<g id="Frame">
<g id="Group">
<g id="Layer 31">
<path id="Vector" d="M40.7812 87.1875C61.7508 87.1875 78.75 70.1883 78.75 49.2188C78.75 28.2492 61.7508 11.25 40.7812 11.25C19.8117 11.25 2.8125 28.2492 2.8125 49.2188C2.8125 70.1883 19.8117 87.1875 40.7812 87.1875Z" fill="#D8F0C4"/>
<path id="Vector_2" d="M40.7813 11.25C35.2941 11.2456 29.8717 12.4356 24.8906 14.7375C17.4389 20.392 12.3367 28.5983 10.5625 37.7827C8.78833 46.9672 10.467 56.4833 15.2767 64.5064C20.0863 72.5295 27.6884 78.4947 36.6251 81.2582C45.5618 84.0217 55.2042 83.3889 63.7031 79.4813C70.0414 74.6786 74.7117 68.0071 77.0553 60.408C79.3988 52.8089 79.2971 44.6657 76.7647 37.1275C74.2322 29.5892 69.3969 23.0363 62.9407 18.3934C56.4845 13.7504 48.7335 11.2518 40.7813 11.25Z" fill="#F2F2F2"/>
<path id="Vector_3" d="M67.5 42.1875C78.3731 42.1875 87.1875 33.3731 87.1875 22.5C87.1875 11.6269 78.3731 2.8125 67.5 2.8125C56.6269 2.8125 47.8125 11.6269 47.8125 22.5C47.8125 33.3731 56.6269 42.1875 67.5 42.1875Z" fill="url(#paint0_linear_442_7230)"/>
<path id="Vector_4" d="M50.625 54.1406V47.8125C50.625 41.8451 48.2545 36.1222 44.0349 31.9026C39.8154 27.683 34.0924 25.3125 28.125 25.3125V39.375C28.1214 42.3833 28.7225 45.3617 29.8927 48.1331L29.9785 48.2963C35.5059 49.4698 40.39 52.6789 43.6613 57.2864C45.7851 55.8465 48.1406 54.7824 50.625 54.1406Z" fill="url(#paint1_linear_442_7230)"/>
<path id="Vector_5" d="M43.6697 57.2808C39.1105 60.3548 35.8325 64.9896 34.4531 70.3125H33.75C27.7826 70.3125 22.0597 67.942 17.8401 63.7224C13.6205 59.5028 11.25 53.7799 11.25 47.8125H25.3125C28.9056 47.8098 32.4469 48.6687 35.6395 50.3171C38.8321 51.9656 41.5829 54.3555 43.6613 57.2864L43.6697 57.2808Z" fill="#80CE42"/>
<path id="Vector_6" d="M70.3125 53.4375H56.25C50.2826 53.4375 44.5597 55.808 40.3401 60.0276C36.1205 64.2472 33.75 69.9701 33.75 75.9375H47.8125C53.7799 75.9375 59.5028 73.567 63.7224 69.3474C67.942 65.1278 70.3125 59.4049 70.3125 53.4375Z" fill="url(#paint2_linear_442_7230)"/>
<path id="Vector_7" d="M62.9114 59.1118C52.5323 61.9249 42.8446 66.8475 34.4531 73.5723L33.8414 74.0237C33.788 74.6565 33.7444 75.2893 33.7444 75.9376H35.9831L36.1659 75.797C44.2674 69.2982 53.6221 64.5402 63.6455 61.8203L62.9114 59.1118Z" fill="#80CE42"/>
<path id="Vector_8" d="M20.2415 53.5513L19.1334 56.136L37.2656 63.9041C37.7775 63.0906 38.3412 62.3109 38.9531 61.5697L20.2415 53.5513Z" fill="url(#paint3_linear_442_7230)"/>
<path id="Vector_9" d="M53.4375 25.3125L57.6562 21.0938L63.2812 26.7188L77.3438 12.6562L81.5625 16.875L63.2812 35.1562L53.4375 25.3125Z" fill="#F2F2F2"/>
<path id="Vector_10" d="M46.1981 54.0846C45.7997 50.1039 44.556 46.2542 42.5502 42.7928C40.5443 39.3314 37.8226 36.3382 34.567 34.0132L32.933 36.2997C35.853 38.3828 38.2959 41.0637 40.0994 44.1641C41.9029 47.2646 43.0255 50.7135 43.3927 54.2815L43.5108 57.094C43.5586 57.1586 43.6135 57.2191 43.6613 57.2852C44.4953 56.7293 45.3653 56.2295 46.2656 55.789L46.1981 54.0846Z" fill="#80CE42"/>
</g>
</g>
</g>
<defs>
<linearGradient id="paint0_linear_442_7230" x1="50.2837" y1="42.1875" x2="67.5" y2="42.1875" gradientUnits="userSpaceOnUse">
<stop stop-color="#FF7701"/>
<stop offset="1" stop-color="#091219" stop-opacity="0.54"/>
</linearGradient>
<linearGradient id="paint1_linear_442_7230" x1="29.5371" y1="57.2864" x2="39.375" y2="57.2864" gradientUnits="userSpaceOnUse">
<stop stop-color="#FF7701"/>
<stop offset="1" stop-color="#091219" stop-opacity="0.54"/>
</linearGradient>
<linearGradient id="paint2_linear_442_7230" x1="36.0447" y1="75.9375" x2="52.0313" y2="75.9375" gradientUnits="userSpaceOnUse">
<stop stop-color="#FF7701"/>
<stop offset="1" stop-color="#091219" stop-opacity="0.54"/>
</linearGradient>
<linearGradient id="paint3_linear_442_7230" x1="20.3773" y1="63.9041" x2="29.0433" y2="63.9041" gradientUnits="userSpaceOnUse">
<stop stop-color="#FF7701"/>
<stop offset="1" stop-color="#091219" stop-opacity="0.54"/>
</linearGradient>
</defs>
</svg>
