<svg width="24" height="25" viewBox="0 0 24 25" fill="none" xmlns="http://www.w3.org/2000/svg">
<g id="mdi:company">
<path id="Vector" d="M18 15.0781H16V17.0781H18M18 11.0781H16V13.0781H18M20 19.0781H12V17.0781H14V15.0781H12V13.0781H14V11.0781H12V9.07812H20M10 7.07812H8V5.07812H10M10 11.0781H8V9.07812H10M10 15.0781H8V13.0781H10M10 19.0781H8V17.0781H10M6 7.07812H4V5.07812H6M6 11.0781H4V9.07812H6M6 15.0781H4V13.0781H6M6 19.0781H4V17.0781H6M12 7.07812V3.07812H2V21.0781H22V7.07812H12Z" fill="white"/>
</g>
</svg>
