<svg width="24" height="25" viewBox="0 0 24 25" fill="none" xmlns="http://www.w3.org/2000/svg">
<g id="eva:email-fill">
<path id="Vector" d="M19 4.0791H5C4.20435 4.0791 3.44129 4.39517 2.87868 4.95778C2.31607 5.52039 2 6.28345 2 7.0791V17.0791C2 17.8748 2.31607 18.6378 2.87868 19.2004C3.44129 19.763 4.20435 20.0791 5 20.0791H19C19.7956 20.0791 20.5587 19.763 21.1213 19.2004C21.6839 18.6378 22 17.8748 22 17.0791V7.0791C22 6.28345 21.6839 5.52039 21.1213 4.95778C20.5587 4.39517 19.7956 4.0791 19 4.0791ZM19 6.0791L12.5 10.5491C12.348 10.6369 12.1755 10.6831 12 10.6831C11.8245 10.6831 11.652 10.6369 11.5 10.5491L5 6.0791H19Z" fill="white"/>
</g>
</svg>
