<svg width="25" height="24" viewBox="0 0 25 24" fill="none" xmlns="http://www.w3.org/2000/svg">
<g id="tdesign:location-filled">
<path id="Vector" d="M10.2387 21.811C10.8447 22.311 11.4767 22.768 12.1237 23.214C12.7721 22.7739 13.401 22.3058 14.0087 21.811C15.0217 20.9792 15.9751 20.0773 16.8617 19.112C18.9057 16.877 21.1237 13.637 21.1237 10C21.1237 8.8181 20.8909 7.64778 20.4386 6.55585C19.9863 5.46392 19.3234 4.47177 18.4877 3.63604C17.652 2.80031 16.6598 2.13738 15.5679 1.68508C14.4759 1.23279 13.3056 1 12.1237 1C10.9418 1 9.7715 1.23279 8.67957 1.68508C7.58764 2.13738 6.59548 2.80031 5.75976 3.63604C4.92403 4.47177 4.26109 5.46392 3.8088 6.55585C3.35651 7.64778 3.12372 8.8181 3.12372 10C3.12372 13.637 5.34172 16.876 7.38572 19.112C8.27234 20.0777 9.22568 20.9789 10.2387 21.811ZM12.1237 13.25C11.2618 13.25 10.4351 12.9076 9.82562 12.2981C9.21613 11.6886 8.87372 10.862 8.87372 10C8.87372 9.13805 9.21613 8.3114 9.82562 7.7019C10.4351 7.09241 11.2618 6.75 12.1237 6.75C12.9857 6.75 13.8123 7.09241 14.4218 7.7019C15.0313 8.3114 15.3737 9.13805 15.3737 10C15.3737 10.862 15.0313 11.6886 14.4218 12.2981C13.8123 12.9076 12.9857 13.25 12.1237 13.25Z" fill="white"/>
</g>
</svg>
