<svg width="24" height="25" viewBox="0 0 24 25" fill="none" xmlns="http://www.w3.org/2000/svg">
<g id="ion:call">
<path id="Vector" d="M18.3281 22.5777C17.4131 22.5777 16.1278 22.2468 14.2031 21.1714C11.8627 19.8589 10.0523 18.6472 7.72453 16.3255C5.48015 14.0825 4.38797 12.6303 2.85937 9.84878C1.1325 6.70816 1.42687 5.06191 1.75593 4.35831C2.14781 3.51738 2.72625 3.01441 3.4739 2.51519C3.89857 2.23696 4.34797 1.99845 4.8164 1.80269C4.86328 1.78253 4.90687 1.76332 4.94578 1.74597C5.17781 1.64144 5.52937 1.48347 5.97468 1.65222C6.27187 1.76378 6.53719 1.99207 6.9525 2.40222C7.80422 3.24222 8.96812 5.113 9.3975 6.03175C9.68578 6.65097 9.87656 7.05972 9.87703 7.51816C9.87703 8.05488 9.60703 8.46878 9.27937 8.9155C9.21797 8.99941 9.15703 9.07957 9.09797 9.15738C8.74125 9.62613 8.66297 9.7616 8.71453 10.0035C8.81906 10.4896 9.59859 11.9366 10.8797 13.2149C12.1608 14.4932 13.5661 15.2235 14.0541 15.3275C14.3062 15.3814 14.4445 15.2999 14.9283 14.9305C14.9977 14.8775 15.0689 14.8227 15.1434 14.7678C15.6431 14.3961 16.0378 14.1332 16.5619 14.1332H16.5647C17.0208 14.1332 17.4112 14.331 18.0581 14.6572C18.9019 15.0828 20.8289 16.2318 21.6741 17.0844C22.0852 17.4988 22.3144 17.7632 22.4264 18.0599C22.5952 18.5066 22.4362 18.8568 22.3327 19.0911C22.3153 19.13 22.2961 19.1727 22.2759 19.22C22.0786 19.6876 21.8387 20.1361 21.5592 20.5597C21.0609 21.305 20.5561 21.8821 19.7133 22.2744C19.2805 22.4791 18.8069 22.5829 18.3281 22.5777Z" fill="white"/>
</g>
</svg>
