<svg width="24" height="25" viewBox="0 0 24 25" fill="none" xmlns="http://www.w3.org/2000/svg">
<g id="mdi:user">
<path id="Vector" d="M12 4.0791C13.0609 4.0791 14.0783 4.50053 14.8284 5.25067C15.5786 6.00082 16 7.01824 16 8.0791C16 9.13997 15.5786 10.1574 14.8284 10.9075C14.0783 11.6577 13.0609 12.0791 12 12.0791C10.9391 12.0791 9.92172 11.6577 9.17157 10.9075C8.42143 10.1574 8 9.13997 8 8.0791C8 7.01824 8.42143 6.00082 9.17157 5.25067C9.92172 4.50053 10.9391 4.0791 12 4.0791ZM12 14.0791C16.42 14.0791 20 15.8691 20 18.0791V20.0791H4V18.0791C4 15.8691 7.58 14.0791 12 14.0791Z" fill="white"/>
</g>
</svg>
